<svg width="24" height="24" viewBox="0 0 24 24" fill="none" xmlns="http://www.w3.org/2000/svg">
<path d="M12 0C18.6274 0 24 5.37258 24 12C24 18.6274 18.6274 24 12 24C5.37258 24 0 18.6274 0 12C0 5.37258 5.37258 0 12 0ZM14.207 6.29297C13.8165 5.90244 13.1835 5.90244 12.793 6.29297L7.79297 11.293C7.40244 11.6835 7.40244 12.3165 7.79297 12.707L12.793 17.707C13.1835 18.0976 13.8165 18.0976 14.207 17.707C14.5976 17.3165 14.5976 16.6835 14.207 16.293L9.91406 12L14.207 7.70703C14.5976 7.31651 14.5976 6.68349 14.207 6.29297Z" fill="white"/>
</svg>
