<svg width="32" height="32" viewBox="0 0 32 32" fill="none" xmlns="http://www.w3.org/2000/svg">
<path d="M24.75 9.69663C25.1318 9.91164 25.4489 10.2235 25.6686 10.6001C25.8883 10.9768 26.0027 11.4046 26 11.8395V19.852C26 20.7419 25.5077 21.5625 24.7133 21.9949L17.2133 26.6919C16.8415 26.894 16.4242 27 16 27C15.5758 27 15.1585 26.894 14.7866 26.6919L7.28666 21.9949C6.89796 21.7846 6.57347 21.4747 6.34712 21.0978C6.12078 20.7208 6.00089 20.2905 6 19.852V11.8384C6 10.9485 6.49222 10.1289 7.28666 9.69663L14.7866 5.31855C15.1695 5.10959 15.5995 5 16.0366 5C16.4738 5 16.9038 5.10959 17.2866 5.31855L24.7866 9.69663H24.75Z" stroke="white" stroke-width="2.67" stroke-linecap="round" stroke-linejoin="round"/>
<path d="M12 16C12 17.0609 12.4214 18.0783 13.1716 18.8284C13.9217 19.5786 14.9391 20 16 20C17.0609 20 18.0783 19.5786 18.8284 18.8284C19.5786 18.0783 20 17.0609 20 16C20 14.9391 19.5786 13.9217 18.8284 13.1716C18.0783 12.4214 17.0609 12 16 12C14.9391 12 13.9217 12.4214 13.1716 13.1716C12.4214 13.9217 12 14.9391 12 16Z" stroke="white" stroke-width="2.67" stroke-linecap="round" stroke-linejoin="round"/>
</svg>
