<svg width="32" height="32" viewBox="0 0 32 32" fill="none" xmlns="http://www.w3.org/2000/svg">
<path d="M14.3507 22H7.16651C4.95737 22 3.1665 20.2091 3.1665 18V9C3.1665 6.79086 4.95736 5 7.1665 5H24.1665C26.3756 5 28.1665 6.79086 28.1665 9V16.3333" stroke="white" stroke-width="2.66667" stroke-linecap="round"/>
<path d="M25.952 25.1775L30.1323 23.5464C31.3359 23.0768 31.2715 21.3524 30.0361 20.9739L19.4303 17.728C18.3859 17.4087 17.4082 18.3858 17.7282 19.4302L20.9739 30.036C21.3516 31.2715 23.0774 31.336 23.5462 30.1323L25.1772 25.9516C25.2457 25.7761 25.3499 25.6167 25.4831 25.4834C25.6163 25.3502 25.7765 25.246 25.952 25.1775Z" fill="white"/>
</svg>
