<svg width="32" height="32" viewBox="0 0 32 32" fill="none" xmlns="http://www.w3.org/2000/svg">
<path d="M10.6665 13.3334C10.6665 12.6262 10.9475 11.9479 11.4476 11.4478C11.9477 10.9477 12.6259 10.6667 13.3332 10.6667H18.6665C19.3737 10.6667 20.052 10.9477 20.5521 11.4478C21.0522 11.9479 21.3332 12.6262 21.3332 13.3334V18.6667C21.3332 19.374 21.0522 20.0523 20.5521 20.5524C20.052 21.0525 19.3737 21.3334 18.6665 21.3334H13.3332C12.6259 21.3334 11.9477 21.0525 11.4476 20.5524C10.9475 20.0523 10.6665 19.374 10.6665 18.6667V13.3334Z" fill="white"/>
<path d="M4 9.33333V6.66667C4 5.95942 4.28095 5.28115 4.78105 4.78105C5.28115 4.28095 5.95942 4 6.66667 4H9.33333" stroke="white" stroke-width="2.66667" stroke-linecap="round" stroke-linejoin="round"/>
<path d="M4 22.6667V25.3334C4 26.0407 4.28095 26.7189 4.78105 27.219C5.28115 27.7191 5.95942 28.0001 6.66667 28.0001H9.33333" stroke="white" stroke-width="2.66667" stroke-linecap="round" stroke-linejoin="round"/>
<path d="M22.6665 4H25.3332C26.0404 4 26.7187 4.28095 27.2188 4.78105C27.7189 5.28115 27.9998 5.95942 27.9998 6.66667V9.33333" stroke="white" stroke-width="2.66667" stroke-linecap="round" stroke-linejoin="round"/>
<path d="M22.6665 28.0001H25.3332C26.0404 28.0001 26.7187 27.7191 27.2188 27.219C27.7189 26.7189 27.9998 26.0407 27.9998 25.3334V22.6667" stroke="white" stroke-width="2.66667" stroke-linecap="round" stroke-linejoin="round"/>
</svg>
