<svg width="32" height="32" viewBox="0 0 32 32" fill="none" xmlns="http://www.w3.org/2000/svg">
<path d="M25.1569 5.88399C25.9536 5.59629 26.7248 6.36748 26.4371 7.16419L19.3553 26.7751C19.3027 26.8901 19.2181 26.9875 19.1116 27.0558C19.0052 27.1241 18.8814 27.1604 18.7549 27.1604C18.6285 27.1604 18.5047 27.1241 18.3982 27.0558C18.2918 26.9875 18.2072 26.8901 18.1545 26.7751L14.1007 18.6675C14.004 18.474 13.8471 18.3171 13.6535 18.2203L5.54595 14.1665C5.43098 14.1138 5.33356 14.0293 5.26526 13.9228C5.19695 13.8164 5.16064 13.6926 5.16064 13.5661C5.16064 13.4396 5.19695 13.3158 5.26526 13.2094C5.33356 13.103 5.43098 13.0184 5.54595 12.9657L25.1569 5.88399Z" fill="white"/>
</svg>
